<?xml version="1.0" encoding="utf-8"?>
<!-- Generator: Adobe Illustrator 24.3.0, SVG Export Plug-In . SVG Version: 6.00 Build 0)  -->
<svg version="1.1" id="Layer_1" xmlns:serif="http://www.serif.com/"
	 xmlns="http://www.w3.org/2000/svg" xmlns:xlink="http://www.w3.org/1999/xlink" x="0px" y="0px" viewBox="0 0 1920 1080"
	 style="enable-background:new 0 0 1920 1080;" xml:space="preserve">
<style type="text/css">
	.st0{fill:none;}
	.st1{font-family:'SpaceGrotesk-Bold';}
	.st2{font-size:2.8884px;}
	.st3{font-family:'ArialMT';}
	.st4{font-size:4.9609px;}
	.st5{font-size:1.806px;}
	.st6{font-size:1.8062px;}
	.st7{fill:#627889;}
	.st8{fill:#0C406A;}
	.st9{fill:#BFA90C;}
	.st10{fill:#B78D17;}
	.st11{font-size:1.0629px;}
	.st12{font-size:1.7028px;}
	.st13{font-size:0.9032px;}
	.st14{font-size:0.9986px;}
	.st15{font-size:2.7542px;}
	.st16{font-size:3.235px;}
	.st17{font-size:0.8068px;}
	.st18{font-family:'CourierNewPSMT';}
	.st19{font-size:0.7126px;}
	.st20{font-size:0.7042px;}
	.st21{font-size:0.3863px;}
	.st22{font-size:0.6586px;}
	.st23{font-size:0.3492px;}
	.st24{fill-rule:evenodd;clip-rule:evenodd;fill:#EDEDED;}
	.st25{fill-rule:evenodd;clip-rule:evenodd;}
	.st26{fill:#2C4400;}
	.st27{font-size:2.1424px;}
	.st28{font-size:3.8562px;}
	.st29{fill-rule:evenodd;clip-rule:evenodd;fill:#FFF5C7;fill-opacity:0.2;}
	.st30{fill-rule:evenodd;clip-rule:evenodd;fill:#FFD000;}
	.st31{fill-rule:evenodd;clip-rule:evenodd;fill:#CCCCCC;}
	.st32{fill-rule:evenodd;clip-rule:evenodd;fill:#F7F7F7;}
	.st33{fill:none;stroke:#000000;stroke-width:1.713903e-02;stroke-linecap:square;stroke-miterlimit:2.5709;}
	.st34{fill:none;stroke:#000000;stroke-width:3.427806e-02;stroke-linecap:square;stroke-miterlimit:2.5709;}
	.st35{fill-rule:evenodd;clip-rule:evenodd;fill:#A7FFBB;}
	.st36{fill:none;stroke:#000000;stroke-width:4.284758e-03;stroke-linecap:square;stroke-miterlimit:2.5709;}
	.st37{fill:none;stroke:#000000;stroke-width:8.569515e-03;stroke-linecap:square;stroke-miterlimit:2.5709;}
	.st38{font-family:'CourierNewPS-BoldItalicMT';}
	.st39{fill:#B0B0B0;}
	.st40{fill:#FF0000;}
	.st41{fill:#5B5B5B;}
	.st42{fill:#089400;}
	.st43{font-size:1.0356px;}
	.st44{fill:#38A162;}
	.st45{font-size:1.5575px;}
	.st46{fill:#A13838;}
	.st47{fill:#3882A1;}
	.st48{fill:#9838A1;}
	.st49{font-size:1.3283px;}
	.st50{font-size:0.8302px;}
	.st51{font-size:0.2309px;}
	.st52{font-size:0.5583px;}
	.st53{font-size:0.2961px;}
	.st54{fill-rule:evenodd;clip-rule:evenodd;fill:#B0B0B0;}
	.st55{fill-rule:evenodd;clip-rule:evenodd;fill:#201A00;}
	.st56{fill:#D2D2D2;}
	.st57{font-size:1.2889px;}
	.st58{fill:#BBBBBB;}
	.st59{font-size:0.207px;}
	.st60{font-family:'Micro5-Regular';}
	.st61{font-size:2.5201px;}
	.st62{font-size:2.3992px;}
	.st63{font-size:1.0965px;}
	.st64{font-family:'Tiny5-Regular';}
	.st65{font-size:0.5116px;}
	.st66{fill-rule:evenodd;clip-rule:evenodd;fill:#FFE54E;}
	.st67{fill:#F4C404;}
	.st68{fill:#8A8A8A;}
	.st69{font-size:0.4743px;}
	.st70{font-size:1.0232px;}
	.st71{font-size:1.0686px;}
	.st72{font-size:1.1967px;}
	.st73{font-size:0.1281px;}
	.st74{font-size:0.9199px;}
	.st75{font-size:0.8141px;}
	.st76{font-size:0.8998px;}
	.st77{fill-rule:evenodd;clip-rule:evenodd;fill:#D3B948;}
	.st78{fill:#FFFFFF;}
	.st79{fill:#6D6D6D;}
	.st80{font-size:1.1453px;}
	.st81{fill:#969696;}
	.st82{fill:#00BC07;}
	.st83{fill:#BC002E;}
	.st84{font-size:9.3241px;}
	.st85{font-size:4.3525px;}
	.st86{font-size:20.405px;}
	.st87{fill-rule:evenodd;clip-rule:evenodd;fill:#324148;}
	.st88{fill:#BE96D0;}
	.st89{font-size:13.2264px;}
	.st90{fill:#DFE5E9;}
	.st91{fill:#72AFB2;}
	.st92{font-size:4.1335px;}
	.st93{fill-rule:evenodd;clip-rule:evenodd;fill:#FFFFFF;}
	.st94{clip-path:url(#SVGID_2_);}
	.st95{fill-rule:evenodd;clip-rule:evenodd;fill:#DFE5E9;}
	.st96{fill-rule:evenodd;clip-rule:evenodd;fill:#72AFB2;}
	.st97{fill-rule:evenodd;clip-rule:evenodd;fill:#638AC1;}
	.st98{fill-rule:evenodd;clip-rule:evenodd;fill:#8F7FB4;}
</style>
<rect id="Artboard1" y="687.7" class="st0" width="48.1" height="135"/>
<text transform="matrix(1 0 0 1 11.1123 711.2324)" class="st1 st2">MET</text>
<text transform="matrix(1 0 0 1 16.7734 711.2324)" class="st1 st2">A</text>
<text transform="matrix(1 0 0 1 11.1123 718.6406)" class="st1 st2">MET</text>
<text transform="matrix(1 0 0 1 16.7734 718.6406)" class="st1 st2">A</text>
<text transform="matrix(1 0 0 1 15.291 695.1426)" class="st3 st4">M</text>
<text transform="matrix(1 0 0 1 19.8799 695.1426)" class="st3 st4">E</text>
<text transform="matrix(1 0 0 1 23.2285 695.1426)" class="st3 st4">T</text>
<text transform="matrix(1 0 0 1 26.5771 695.1426)" class="st3 st4">A</text>
<text transform="matrix(1 0 0 1 19.0117 710.6797)" class="st1 st5">(sta</text>
<text transform="matrix(1 0 0 1 22.4238 710.6797)" class="st1 st5">t</text>
<text transform="matrix(1 0 0 1 23.2471 710.6797)" class="st1 st5">ion)</text>
<text transform="matrix(1 0 0 1 14.2646 727.5488)" class="st1 st5">(met</text>
<text transform="matrix(1 0 0 1 18.3604 727.5488)" class="st1 st5">a</text>
<text transform="matrix(1 0 0 1 19.4043 727.5488)" class="st1 st5"> : sta</text>
<text transform="matrix(1 0 0 1 23.4941 727.5488)" class="st1 st5">t</text>
<text transform="matrix(1 0 0 1 24.3174 727.5488)" class="st1 st5">ion)</text>
<text transform="matrix(1 0 0 1 14.9277 731.0576)" class="st1 st5">met</text>
<text transform="matrix(1 0 0 1 18.3535 731.0576)" class="st1 st5">a</text>
<text transform="matrix(1 0 0 1 19.3975 731.0576)" class="st1 st5"> : sta</text>
<text transform="matrix(1 0 0 1 23.4873 731.0576)" class="st1 st5">t</text>
<text transform="matrix(1 0 0 1 24.3105 731.0576)" class="st1 st5">ion</text>
<g transform="matrix(0.0590165,0,0,0.0590165,30.3444,1155.36)">
	<text transform="matrix(16.9446 0 0 16.9446 -261.2451 -7132.9077)" class="st1 st6">me</text>
	<text transform="matrix(16.9446 0 0 16.9446 -217.2042 -7132.9077)" class="st1 st6">t</text>
	<text transform="matrix(16.9446 0 0 16.9446 -203.1802 -7132.9077)" class="st1 st6">a</text>
	<text transform="matrix(16.9446 0 0 16.9446 -185.9213 -7132.9077)" class="st1 st6">_s</text>
	<text transform="matrix(16.9446 0 0 16.9446 -151.1551 -7132.9077)" class="st1 st6">t</text>
	<text transform="matrix(16.9446 0 0 16.9446 -137.1395 -7132.9077)" class="st1 st6">a</text>
	<text transform="matrix(16.9446 0 0 16.9446 -120.4845 -7132.9077)" class="st1 st6">t</text>
	<text transform="matrix(16.9446 0 0 16.9446 -106.5267 -7132.9077)" class="st1 st6">ion</text>
</g>
<g transform="matrix(0.0590165,0,0,0.0590165,37.9504,1199.3)">
	<text transform="matrix(16.9446 0 0 16.9446 -334.8984 -7558.4351)" class="st7 st1 st6">me</text>
	<text transform="matrix(16.9446 0 0 16.9446 -290.8575 -7558.4351)" class="st7 st1 st6">t</text>
	<text transform="matrix(16.9446 0 0 16.9446 -276.8418 -7558.4351)" class="st7 st1 st6">a</text>
	<text transform="matrix(16.9446 0 0 16.9446 -259.5829 -7558.4351)" class="st1 st6">_s</text>
	<text transform="matrix(16.9446 0 0 16.9446 -224.8085 -7558.4351)" class="st1 st6">t</text>
	<text transform="matrix(16.9446 0 0 16.9446 -210.7928 -7558.4351)" class="st1 st6">a</text>
	<text transform="matrix(16.9446 0 0 16.9446 -194.1461 -7558.4351)" class="st1 st6">t</text>
	<text transform="matrix(16.9446 0 0 16.9446 -180.1883 -7558.4351)" class="st1 st6">ion</text>
</g>
<g transform="matrix(0.0590165,0,0,0.0590165,37.9504,1214.8)">
	<text transform="matrix(16.9446 0 0 16.9446 -334.8984 -7708.5366)" class="st8 st1 st6">me</text>
	<text transform="matrix(16.9446 0 0 16.9446 -290.8575 -7708.5366)" class="st8 st1 st6">t</text>
	<text transform="matrix(16.9446 0 0 16.9446 -276.8418 -7708.5366)" class="st8 st1 st6">a</text>
	<text transform="matrix(16.9446 0 0 16.9446 -259.5829 -7708.5366)" class="st1 st6">_</text>
	<text transform="matrix(16.9446 0 0 16.9446 -240.603 -7708.5366)" class="st9 st1 st6">s</text>
	<text transform="matrix(16.9446 0 0 16.9446 -224.8085 -7708.5366)" class="st9 st1 st6">t</text>
	<text transform="matrix(16.9446 0 0 16.9446 -210.7928 -7708.5366)" class="st9 st1 st6">a</text>
	<text transform="matrix(16.9446 0 0 16.9446 -194.1461 -7708.5366)" class="st9 st1 st6">t</text>
	<text transform="matrix(16.9446 0 0 16.9446 -180.1883 -7708.5366)" class="st9 st1 st6">ion</text>
</g>
<g transform="matrix(0.0590165,0,0,0.0590165,37.9504,1230.3)">
	<text transform="matrix(16.9446 0 0 16.9446 -334.8984 -7858.6382)" class="st1 st6">me</text>
	<text transform="matrix(16.9446 0 0 16.9446 -290.8575 -7858.6382)" class="st1 st6">t</text>
	<text transform="matrix(16.9446 0 0 16.9446 -276.8418 -7858.6382)" class="st1 st6">a</text>
	<text transform="matrix(16.9446 0 0 16.9446 -259.5829 -7858.6382)" class="st10 st1 st6">_s</text>
	<text transform="matrix(16.9446 0 0 16.9446 -224.8085 -7858.6382)" class="st10 st1 st6">t</text>
	<text transform="matrix(16.9446 0 0 16.9446 -210.7928 -7858.6382)" class="st10 st1 st6">a</text>
	<text transform="matrix(16.9446 0 0 16.9446 -194.1461 -7858.6382)" class="st10 st1 st6">t</text>
	<text transform="matrix(16.9446 0 0 16.9446 -180.1883 -7858.6382)" class="st10 st1 st6">ion</text>
</g>
<g transform="matrix(0.0590165,0,0,0.0590165,37.9504,1247.01)">
	<text transform="matrix(16.9446 0 0 16.9446 -334.8984 -8020.4722)" class="st1 st6">me</text>
	<text transform="matrix(16.9446 0 0 16.9446 -291.4697 -8020.4722)" class="st1 st6">t</text>
	<text transform="matrix(16.9446 0 0 16.9446 -277.512 -8020.4722)" class="st1 st6">a</text>
	<text transform="matrix(16.9446 0 0 16.9446 -260.162 -8020.4722)" class="st1 st6">_s</text>
	<text transform="matrix(16.9446 0 0 16.9446 -225.4207 -8020.4722)" class="st1 st6">t</text>
	<text transform="matrix(16.9446 0 0 16.9446 -211.4712 -8020.4722)" class="st1 st6">a</text>
	<text transform="matrix(16.9446 0 0 16.9446 -194.8824 -8020.4722)" class="st1 st6">t</text>
	<text transform="matrix(16.9446 0 0 16.9446 -180.9247 -8020.4722)" class="st1 st6">ion</text>
</g>
<g transform="matrix(0.0590165,0,0,0.0590165,37.9504,1262.02)">
	<text transform="matrix(16.9446 0 0 16.9446 -334.8984 -8165.8286)" class="st1 st6">me</text>
	<text transform="matrix(16.9446 0 0 16.9446 -291.4697 -8165.8286)" class="st1 st6">t</text>
	<text transform="matrix(16.9446 0 0 16.9446 -277.512 -8165.8286)" class="st1 st6">a</text>
	<text transform="matrix(16.9446 0 0 16.9446 -260.162 -8165.8286)" class="st1 st6">_s</text>
	<text transform="matrix(16.9446 0 0 16.9446 -225.4207 -8165.8286)" class="st1 st6">t</text>
	<text transform="matrix(16.9446 0 0 16.9446 -211.4712 -8165.8286)" class="st1 st6">a</text>
	<text transform="matrix(16.9446 0 0 16.9446 -194.8824 -8165.8286)" class="st1 st6">t</text>
	<text transform="matrix(16.9446 0 0 16.9446 -180.9247 -8165.8286)" class="st1 st6">ion</text>
</g>
<g>
	<g transform="matrix(0.0347297,0,0,0.0347297,30.344,1329.55)">
		<text transform="matrix(28.7936 0 0 28.7936 -466.7214 -15019.583)" class="st1 st11">S</text>
		<text transform="matrix(28.7936 0 0 28.7936 -448.852 -15019.583)" class="st1 st11">T</text>
		<text transform="matrix(28.7936 0 0 28.7936 -432.8102 -15019.583)" class="st1 st11">A</text>
		<text transform="matrix(28.7936 0 0 28.7936 -415.3766 -15019.583)" class="st1 st11">T</text>
		<text transform="matrix(28.7936 0 0 28.7936 -397.3807 -15019.583)" class="st1 st11">ION</text>
		<text transform="matrix(28.7936 0 0 28.7936 -348.1027 -15019.583)" class="st1 st11">.</text>
		<text transform="matrix(28.7936 0 0 28.7936 -341.0027 -15019.583)" class="st1 st11">ﬁ</text>
	</g>
	<text transform="matrix(1 0 0 1 14.0596 806.9922)" class="st1 st12">meta</text>
	<text transform="matrix(1 0 0 1 13.5234 806.8721)" class="st1 st13">&lt;</text>
	<g transform="matrix(-1,-1.22465e-16,1.22465e-16,-1,96.9633,2669.86)">
		<text transform="matrix(1 0 0 1 77.1528 1862.5984)" class="st1 st13">&lt;</text>
	</g>
</g>
<g>
	<g transform="matrix(0.0326269,0,0,0.0326269,59.266,1329.67)">
		<text transform="matrix(30.6495 0 0 30.6495 -1005.5323 -15992.7373)" class="st1 st14">S</text>
		<text transform="matrix(30.6495 0 0 30.6495 -987.6635 -15992.7373)" class="st1 st14">T</text>
		<text transform="matrix(30.6495 0 0 30.6495 -971.6353 -15992.7373)" class="st1 st14">A</text>
		<text transform="matrix(30.6495 0 0 30.6495 -954.1855 -15992.7373)" class="st1 st14">T</text>
		<text transform="matrix(30.6495 0 0 30.6495 -936.1819 -15992.7373)" class="st1 st14">ION</text>
		<text transform="matrix(30.6495 0 0 30.6495 -886.9153 -15992.7373)" class="st1 st14">.</text>
		<text transform="matrix(30.6495 0 0 30.6495 -879.8066 -15992.7373)" class="st1 st14">ﬁ</text>
	</g>
	<text transform="matrix(1 0 0 1 26.3809 806.9922)" class="st1 st12">m</text>
	<text transform="matrix(1 0 0 1 27.752 806.9922)" class="st1 st12">e</text>
	<text transform="matrix(1 0 0 1 28.627 806.9922)" class="st1 st12">t</text>
	<text transform="matrix(1 0 0 1 29.3184 806.9922)" class="st1 st12">a</text>
	<text transform="matrix(1 0 0 1 25.8447 806.8721)" class="st1 st13">&lt;</text>
	<g transform="matrix(-1,-1.22465e-16,1.22465e-16,-1,153.037,2669.86)">
		<text transform="matrix(1 0 0 1 121.2138 1862.5984)" class="st1 st13">&lt;</text>
	</g>
</g>
<g transform="matrix(0.0347297,0,0,0.0347297,39.8776,1297.51)">
	<text transform="matrix(28.7936 0 0 28.7936 -623.6071 -14492.3018)" class="st1 st11">S</text>
	<text transform="matrix(28.7936 0 0 28.7936 -605.7377 -14492.3018)" class="st1 st11">T</text>
	<text transform="matrix(28.7936 0 0 28.7936 -589.71 -14492.3018)" class="st1 st11">A</text>
	<text transform="matrix(28.7936 0 0 28.7936 -572.2624 -14492.3018)" class="st1 st11">T</text>
	<text transform="matrix(28.7936 0 0 28.7936 -554.2664 -14492.3018)" class="st1 st11">ION</text>
	<text transform="matrix(28.7936 0 0 28.7936 -504.9884 -14492.3018)" class="st1 st11">.</text>
	<text transform="matrix(28.7936 0 0 28.7936 -497.8884 -14492.3018)" class="st1 st11">ﬁ</text>
</g>
<text transform="matrix(1 0 0 1 18.1445 793.2637)" class="st1 st12">meta</text>
<g transform="matrix(0.0590165,0,0,0.0590165,3.06229,1236.03)">
	<text transform="matrix(16.9446 0 0 16.9446 2.9655 -7914.1299)" class="st1 st6">me</text>
	<text transform="matrix(16.9446 0 0 16.9446 47.0065 -7914.1299)" class="st1 st6">t</text>
	<text transform="matrix(16.9446 0 0 16.9446 61.0222 -7914.1299)" class="st1 st6">a</text>
	<text transform="matrix(16.9446 0 0 16.9446 78.2811 -7914.1299)" class="st1 st6">_s</text>
	<text transform="matrix(16.9446 0 0 16.9446 113.0555 -7914.1299)" class="st1 st6">t</text>
	<text transform="matrix(16.9446 0 0 16.9446 127.0712 -7914.1299)" class="st1 st6">a</text>
	<text transform="matrix(16.9446 0 0 16.9446 143.7179 -7914.1299)" class="st1 st6">t</text>
	<text transform="matrix(16.9446 0 0 16.9446 157.6756 -7914.1299)" class="st1 st6">ion</text>
</g>
<text transform="matrix(1 0 0 1 17.5488 753.1113)" class="st1 st13">&lt;</text>
<text transform="matrix(1 0 0 1 17.5488 759.7568)" class="st1 st13">&lt;</text>
<text transform="matrix(1 0 0 1 17.5488 766.3984)" class="st10 st1 st13">&lt;</text>
<text transform="matrix(1 0 0 1 17.5488 773.5586)" class="st1 st13">&lt;</text>
<text transform="matrix(1 0 0 1 17.5488 779.9893)" class="st1 st13">&lt;</text>
<g transform="matrix(-1,-1.22465e-16,1.22465e-16,-1,147.171,2414.15)">
	<text transform="matrix(1 0 0 1 116.6046 1661.6694)" class="st1 st13">&lt;</text>
</g>
<g transform="matrix(-1,-1.22465e-16,1.22465e-16,-1,147.171,2445.15)">
	<text transform="matrix(1 0 0 1 116.6046 1686.0269)" class="st1 st13">&lt;</text>
</g>
<g transform="matrix(-1,-1.22465e-16,1.22465e-16,-1,147.171,2476.16)">
	<text transform="matrix(1 0 0 1 116.6046 1710.3962)" class="st10 st1 st13">&lt;</text>
</g>
<g transform="matrix(-1,-1.22465e-16,1.22465e-16,-1,147.171,2509.58)">
	<text transform="matrix(1 0 0 1 116.6046 1736.6523)" class="st1 st13">&lt;</text>
</g>
<g transform="matrix(-1,-1.22465e-16,1.22465e-16,-1,147.171,2539.6)">
	<text transform="matrix(1 0 0 1 116.6046 1760.2407)" class="st1 st13">&lt;</text>
</g>
<text transform="matrix(1 0 0 1 19.9443 718.584)" class="st1 st15">S</text>
<text transform="matrix(1 0 0 1 21.5508 718.584)" class="st1 st15">T</text>
<text transform="matrix(1 0 0 1 22.9639 718.584)" class="st1 st15">A</text>
<text transform="matrix(1 0 0 1 24.4922 718.584)" class="st1 st15">T</text>
<text transform="matrix(1 0 0 1 26.1113 718.584)" class="st1 st15">ION</text>
<text transform="matrix(1 0 0 1 18.9678 718.293)" class="st1 st15">:</text>
<text transform="matrix(1 0 0 1 16.082 697.6699)" class="st3 st16">s</text>
<text transform="matrix(1 0 0 1 18.1846 697.6699)" class="st3 st16">t</text>
<text transform="matrix(1 0 0 1 19.8828 697.6699)" class="st3 st16">a</text>
<text transform="matrix(1 0 0 1 21.9854 697.6699)" class="st3 st16">t</text>
<text transform="matrix(1 0 0 1 23.6846 697.6699)" class="st3 st16">i</text>
<text transform="matrix(1 0 0 1 24.5732 697.6699)" class="st3 st16">o</text>
<text transform="matrix(1 0 0 1 26.6758 697.6699)" class="st3 st16">n</text>
<rect id="Artboard2" x="53.6" y="798.4" class="st0" width="22.3" height="44.6"/>
<g>
	<g transform="matrix(0.0326269,0,0,0.0326269,143.026,1335.96)">
		<text transform="matrix(30.6495 0 0 30.6495 -2472.7629 -16102.9102)" class="st1 st14">S</text>
		<text transform="matrix(30.6495 0 0 30.6495 -2454.8789 -16102.9102)" class="st1 st14">T</text>
		<text transform="matrix(30.6495 0 0 30.6495 -2438.8508 -16102.9102)" class="st1 st14">A</text>
		<text transform="matrix(30.6495 0 0 30.6495 -2421.4011 -16102.9102)" class="st1 st14">T</text>
		<text transform="matrix(30.6495 0 0 30.6495 -2403.3975 -16102.9102)" class="st1 st14">ION</text>
		<text transform="matrix(30.6495 0 0 30.6495 -2354.1309 -16102.9102)" class="st1 st14">.</text>
		<text transform="matrix(30.6495 0 0 30.6495 -2347.0222 -16102.9102)" class="st1 st14">ﬁ</text>
	</g>
	<text transform="matrix(1 0 0 1 62.2705 809.6914)" class="st1 st12">m</text>
	<text transform="matrix(1 0 0 1 63.6416 809.6914)" class="st1 st12">e</text>
	<text transform="matrix(1 0 0 1 64.5166 809.6914)" class="st1 st12">t</text>
	<text transform="matrix(1 0 0 1 65.208 809.6914)" class="st1 st12">a</text>
	<text transform="matrix(1 0 0 1 61.7344 809.5664)" class="st1 st13">&lt;</text>
	<g transform="matrix(-1,-1.22465e-16,1.22465e-16,-1,320.557,2682.46)">
		<text transform="matrix(1 0 0 1 252.8441 1872.4951)" class="st1 st13">&lt;</text>
	</g>
</g>
<g>
	<g transform="matrix(0.0326269,0,0,0.0326269,143.026,1346.75)">
		<text transform="matrix(30.6495 0 0 30.6495 -2472.7629 -16291.9248)" class="st1 st14">S</text>
		<text transform="matrix(30.6495 0 0 30.6495 -2454.9089 -16291.9248)" class="st1 st14">T</text>
		<text transform="matrix(30.6495 0 0 30.6495 -2439.3596 -16291.9248)" class="st1 st14">A</text>
		<text transform="matrix(30.6495 0 0 30.6495 -2422.5984 -16291.9248)" class="st1 st14">T</text>
		<text transform="matrix(30.6495 0 0 30.6495 -2404.5947 -16291.9248)" class="st1 st14">ION</text>
		<text transform="matrix(30.6495 0 0 30.6495 -2356.7649 -16291.9248)" class="st1 st14">.</text>
		<text transform="matrix(30.6495 0 0 30.6495 -2351.033 -16291.9248)" class="st1 st14">ﬁ</text>
	</g>
	<text transform="matrix(1 0 0 1 62.2705 814.3105)" class="st1 st12">m</text>
	<text transform="matrix(1 0 0 1 63.6445 814.3105)" class="st1 st12">e</text>
	<text transform="matrix(1 0 0 1 64.5234 814.3105)" class="st1 st12">t</text>
	<text transform="matrix(1 0 0 1 65.2158 814.3105)" class="st1 st12">a</text>
	<text transform="matrix(1 0 0 1 61.7344 814.1904)" class="st1 st13">&lt;</text>
	<g transform="matrix(-1,-1.22465e-16,1.22465e-16,-1,320.557,2704.03)">
		<text transform="matrix(1 0 0 1 252.8441 1889.446)" class="st1 st13">&lt;</text>
	</g>
</g>
<g transform="matrix(0.0263605,0,0,0.0263605,143.528,1362.77)">
	<text transform="matrix(37.9348 0 0 37.9348 -3079.1733 -20522.7969)" class="st1 st17">S</text>
	<text transform="matrix(37.9348 0 0 37.9348 -3061.3174 -20522.7969)" class="st1 st17">T</text>
	<text transform="matrix(37.9348 0 0 37.9348 -3045.7766 -20522.7969)" class="st1 st17">A</text>
	<text transform="matrix(37.9348 0 0 37.9348 -3029.0134 -20522.7969)" class="st1 st17">T</text>
	<text transform="matrix(37.9348 0 0 37.9348 -3011.0093 -20522.7969)" class="st1 st17">ION</text>
	<text transform="matrix(37.9348 0 0 37.9348 -2956.3298 -20522.7969)" class="st1 st17">.</text>
	<text transform="matrix(37.9348 0 0 37.9348 -2950.6062 -20522.7969)" class="st1 st17">ﬁ</text>
</g>
<g transform="matrix(0.0232827,0,0,0.0232827,133.461,1376.19)">
	<text transform="matrix(42.9498 0 0 42.9498 -3243.425 -23571.4043)" class="st18 st19">STATION.</text>
	<text transform="matrix(42.9498 0 0 42.9498 -3096.519 -23571.4043)" class="st18 st19">ﬁ</text>
</g>
<g>
	<g transform="matrix(0.0230096,0,0,0.0230096,155.345,1376.2)">
		<text transform="matrix(43.4594 0 0 43.4594 -3825.8367 -23851.8809)" class="st18 st20">STATION.</text>
		<text transform="matrix(43.4594 0 0 43.4594 -3678.949 -23851.8809)" class="st1 st20">ﬁ</text>
	</g>
	<text transform="matrix(1 0 0 1 67.2168 826.7012)" class="st1 st12">m</text>
	<text transform="matrix(1 0 0 1 68.5957 826.7012)" class="st1 st12">e</text>
	<text transform="matrix(1 0 0 1 69.4844 826.7012)" class="st1 st12">t</text>
	<text transform="matrix(1 0 0 1 70.1777 826.7012)" class="st1 st12">a</text>
	<text transform="matrix(1 0 0 1 66.5781 826.5781)" class="st1 st13">&lt;</text>
	<g transform="matrix(-1,-1.22465e-16,1.22465e-16,-1,339.912,2761.08)">
		<text transform="matrix(1 0 0 1 268.0526 1934.2715)" class="st1 st13">&lt;</text>
	</g>
</g>
<g transform="matrix(0.0230096,0,0,0.0230096,131.529,1387.6)">
	<text transform="matrix(43.4594 0 0 43.4594 -3234.2937 -24135.0293)" class="st18 st20">STATION.</text>
	<text transform="matrix(43.4594 0 0 43.4594 -3087.406 -24135.0293)" class="st1 st20">ﬁ</text>
</g>
<text transform="matrix(1 0 0 1 62.2705 821.0244)" class="st1 st12">m</text>
<text transform="matrix(1 0 0 1 63.6445 821.0244)" class="st1 st12">e</text>
<text transform="matrix(1 0 0 1 64.5234 821.0244)" class="st1 st12">t</text>
<text transform="matrix(1 0 0 1 65.2158 821.0244)" class="st1 st12">a</text>
<text transform="matrix(1 0 0 1 57.8486 826.7012)" class="st1 st12">m</text>
<text transform="matrix(1 0 0 1 59.2236 826.7012)" class="st1 st12">e</text>
<text transform="matrix(1 0 0 1 60.1016 826.7012)" class="st1 st12">t</text>
<text transform="matrix(1 0 0 1 60.7949 826.7012)" class="st1 st12">a</text>
<text transform="matrix(1 0 0 1 57.0127 831.582)" class="st1 st12">m</text>
<text transform="matrix(1 0 0 1 58.3916 831.582)" class="st1 st12">e</text>
<text transform="matrix(1 0 0 1 59.2803 831.582)" class="st1 st12">t</text>
<text transform="matrix(1 0 0 1 59.9736 831.582)" class="st1 st12">a</text>
<text transform="matrix(1 0 0 1 61.7344 820.9004)" class="st1 st13">&lt;</text>
<text transform="matrix(1 0 0 1 57.3135 826.5781)" class="st1 st13">&lt;</text>
<text transform="matrix(1 0 0 1 56.373 831.543)" class="st1 st13">&lt;</text>
<g transform="matrix(-1,-1.22465e-16,1.22465e-16,-1,316.75,2734.81)">
	<text transform="matrix(1 0 0 1 249.8525 1913.6323)" class="st1 st13">&lt;</text>
</g>
<g transform="matrix(-1,-1.22465e-16,1.22465e-16,-1,296.187,2761.08)">
	<text transform="matrix(1 0 0 1 233.6958 1934.2715)" class="st1 st13">&lt;</text>
</g>
<g transform="matrix(-1,-1.22465e-16,1.22465e-16,-1,292.28,2780.24)">
	<text transform="matrix(1 0 0 1 230.6257 1949.3298)" class="st1 st13">&lt;</text>
</g>
<g>
	<g transform="matrix(0.0126215,0,0,0.0126215,162.19,1328.05)">
		<text transform="matrix(79.233 0 0 79.233 -7311.9209 -41343.1758)" class="st1 st21">S</text>
		<text transform="matrix(79.233 0 0 79.233 -7294.0469 -41343.1758)" class="st1 st21">T</text>
		<text transform="matrix(79.233 0 0 79.233 -7277.9912 -41343.1758)" class="st1 st21">A</text>
		<text transform="matrix(79.233 0 0 79.233 -7260.543 -41343.1758)" class="st1 st21">T</text>
		<text transform="matrix(79.233 0 0 79.233 -7242.5532 -41343.1758)" class="st1 st21">ION</text>
		<text transform="matrix(79.233 0 0 79.233 -7193.2646 -41343.1758)" class="st1 st21">.</text>
		<text transform="matrix(79.233 0 0 79.233 -7186.1846 -41343.1758)" class="st1 st21">ﬁ</text>
	</g>
	<text transform="matrix(1 0 0 1 69.876 805.916)" class="st1 st22">me</text>
	<text transform="matrix(1 0 0 1 70.7451 805.916)" class="st1 st22">t</text>
	<text transform="matrix(1 0 0 1 71.0459 805.916)" class="st1 st22">a</text>
	<text transform="matrix(1 0 0 1 69.6689 805.8691)" class="st1 st23">&lt;</text>
	<g transform="matrix(-1,-1.22465e-16,1.22465e-16,-1,337.728,2660.16)">
		<text transform="matrix(1 0 0 1 265.7466 1854.1404)" class="st1 st23">&lt;</text>
	</g>
</g>
<rect id="Artboard3" x="116.3" y="710.9" class="st0" width="149.1" height="84.2"/>
<path class="st24" d="M238.4,776.5v-0.3h-4.6l0,2.4l0.5,0.5h4.4v-2.7H238.4L238.4,776.5z"/>
<path class="st25" d="M238.6,776.3V776h-5.1l0,2.7l0.6,0.6h4.7v-3.1H238.6L238.6,776.3z M238.4,776.5v-0.3h-4.6l0,2.4l0.5,0.5h4.4
	v-2.7H238.4L238.4,776.5z"/>
<text transform="matrix(1 0 0 1 233.5781 777.667)" class="st26 st3 st27">m</text>
<text transform="matrix(1 0 0 1 235.1318 777.667)" class="st26 st3 st27">e</text>
<text transform="matrix(1 0 0 1 236.1494 777.667)" class="st26 st3 st27">t</text>
<text transform="matrix(1 0 0 1 237.167 777.667)" class="st26 st3 st27">a</text>
<rect x="244.7" y="773.3" class="st24" width="0.1" height="0.2"/>
<g>
	<g transform="matrix(2.92959e-18,0.0478438,-0.0478438,2.92959e-18,298.844,1161.9)">
		<text transform="matrix(20.9013 0 0 20.9013 -8900.8887 3615.9746)" class="st3 st28">&lt;</text>
		<text transform="matrix(20.9013 0 0 20.9013 -8880.3555 3615.9746)" class="st3 st28">&gt;</text>
	</g>
	<rect x="125.5" y="736.2" class="st29" width="3.1" height="3.2"/>
	<circle class="st30" cx="127" cy="737.7" r="0.4"/>
</g>
<g>
	<g transform="matrix(2.92959e-18,0.0478438,-0.0478438,2.92959e-18,326.96,1194.36)">
		<text transform="matrix(20.9013 0 0 20.9013 -9288.6436 3951.8394)" class="st3 st28">&lt;</text>
		<text transform="matrix(20.9013 0 0 20.9013 -9268.0898 3951.8394)" class="st3 st28">&gt;</text>
	</g>
	<rect x="137.5" y="750.1" class="st29" width="3.1" height="3.2"/>
	<circle class="st30" cx="139.1" cy="751.6" r="0.4"/>
</g>
<rect x="129.2" y="736.9" class="st29" width="21.7" height="1.8"/>
<rect x="128.2" y="754" class="st29" width="21.7" height="1.8"/>
<g>
	<path class="st31" d="M131.2,713.8c0-0.1,0-0.1-0.1-0.1h-0.6c-0.1,0-0.1,0-0.1,0.1v0.6c0,0.1,0,0.1,0.1,0.1h0.6
		c0.1,0,0.1,0,0.1-0.1V713.8z"/>
	<path class="st25" d="M131.3,713.8c0-0.1-0.1-0.2-0.2-0.2h-0.6c-0.1,0-0.2,0.1-0.2,0.2v0.6c0,0.1,0.1,0.2,0.2,0.2h0.6
		c0.1,0,0.2-0.1,0.2-0.2V713.8z M131.2,713.8c0-0.1,0-0.1-0.1-0.1h-0.6c-0.1,0-0.1,0-0.1,0.1v0.6c0,0.1,0,0.1,0.1,0.1h0.6
		c0.1,0,0.1,0,0.1-0.1V713.8z"/>
	<rect x="130.6" y="713.9" class="st32" width="0.4" height="0.4"/>
	<g>
		<path class="st33" d="M130.5,714.4l0.7-0.7"/>
		<path class="st34" d="M130.6,714.3v-0.5h0.5"/>
		<path class="st34" d="M131,713.8v0.5h-0.5"/>
	</g>
	<circle class="st35" cx="130.8" cy="714.1" r="0"/>
	<path class="st25" d="M130.8,714C130.8,714,130.7,714,130.8,714c-0.1,0.1,0,0.2,0,0.2C130.9,714.1,130.9,714.1,130.8,714
		C130.9,714,130.9,714,130.8,714z M130.8,714C130.9,714,130.9,714,130.8,714C130.9,714.1,130.9,714.1,130.8,714
		C130.8,714.1,130.8,714.1,130.8,714C130.8,714,130.8,714,130.8,714z"/>
</g>
<g>
	<path class="st31" d="M130.8,716.2C130.8,716.1,130.8,716.1,130.8,716.2l-0.2,0c0,0,0,0,0,0v0.2c0,0,0,0,0,0h0.2c0,0,0,0,0,0V716.2
		z"/>
	<path class="st25" d="M130.9,716.2C130.9,716.1,130.8,716.1,130.9,716.2l-0.2-0.1c0,0-0.1,0-0.1,0.1v0.2c0,0,0,0.1,0.1,0.1h0.2
		c0,0,0.1,0,0.1-0.1V716.2z M130.8,716.2C130.8,716.1,130.8,716.1,130.8,716.2l-0.2,0c0,0,0,0,0,0v0.2c0,0,0,0,0,0h0.2c0,0,0,0,0,0
		V716.2z"/>
	<rect x="130.6" y="716.2" class="st32" width="0.1" height="0.1"/>
	<g>
		<path class="st36" d="M130.6,716.4l0.2-0.2"/>
		<path class="st37" d="M130.6,716.3v-0.2h0.2"/>
		<path class="st37" d="M130.8,716.2v0.2h-0.2"/>
	</g>
	<circle class="st35" cx="130.7" cy="716.3" r="0"/>
	<path class="st25" d="M130.7,716.2C130.7,716.2,130.7,716.2,130.7,716.2C130.7,716.3,130.7,716.3,130.7,716.2
		C130.7,716.3,130.7,716.3,130.7,716.2C130.7,716.2,130.7,716.2,130.7,716.2z M130.7,716.2C130.7,716.2,130.7,716.2,130.7,716.2
		C130.7,716.3,130.7,716.3,130.7,716.2C130.7,716.3,130.7,716.3,130.7,716.2C130.7,716.2,130.7,716.2,130.7,716.2z"/>
</g>
<g>
	<g transform="matrix(0.0230096,0,0,0.0230096,273.103,1110.64)">
		<text transform="matrix(43.4594 0 0 43.4594 -6750.7363 -17255.8887)" class="st38 st20">STATION</text>
		<text transform="matrix(43.4594 0 0 43.4594 -6622.1831 -17255.8887)" class="st18 st20">.</text>
		<text transform="matrix(43.4594 0 0 43.4594 -6603.8276 -17255.8887)" class="st1 st20">ﬁ</text>
	</g>
	<text transform="matrix(1 0 0 1 117.6729 712.916)" class="st1 st12">m</text>
	<text transform="matrix(1 0 0 1 119.0557 712.916)" class="st1 st12">e</text>
	<text transform="matrix(1 0 0 1 119.9531 712.916)" class="st1 st12">t</text>
	<text transform="matrix(1 0 0 1 120.6475 712.916)" class="st1 st12">a</text>
	<text transform="matrix(1 0 0 1 117.0342 712.791)" class="st1 st13">&lt;</text>
	<g transform="matrix(-1,-1.22465e-16,1.22465e-16,-1,575.429,2229.96)">
		<text transform="matrix(1 0 0 1 453.1136 1516.9365)" class="st1 st13">&lt;</text>
	</g>
</g>
<g>
	<g transform="matrix(0.0230096,0,0,0.0230096,288.265,1132.38)">
		<text transform="matrix(43.4594 0 0 43.4594 -7127.3306 -17795.8516)" class="st38 st20">STATION</text>
		<text transform="matrix(43.4594 0 0 43.4594 -6998.7773 -17795.8516)" class="st18 st20">.</text>
		<text transform="matrix(43.4594 0 0 43.4594 -6980.4219 -17795.8516)" class="st1 st20">ﬁ</text>
	</g>
	<text transform="matrix(1 0 0 1 124.1699 722.2266)" class="st1 st12">m</text>
	<text transform="matrix(1 0 0 1 125.5527 722.2266)" class="st1 st12">e</text>
	<text transform="matrix(1 0 0 1 126.4502 722.2266)" class="st1 st12">t</text>
	<text transform="matrix(1 0 0 1 127.1445 722.2266)" class="st1 st12">a</text>
	<text transform="matrix(1 0 0 1 123.5312 722.1064)" class="st1 st13">&lt;</text>
	<g transform="matrix(-1,-1.22465e-16,1.22465e-16,-1,605.752,2273.43)">
		<text transform="matrix(1 0 0 1 476.9405 1551.0959)" class="st1 st13">&lt;</text>
	</g>
</g>
<g transform="matrix(0.0265807,0,0,0.0265807,317.531,1113.55)">
	<text transform="matrix(37.6209 0 0 37.6209 -6794.6885 -14994.0146)" class="st39 st3 st27">&lt;</text>
	<text transform="matrix(37.6209 0 0 37.6209 -6748.3423 -14994.0146)" class="st3 st27">m</text>
	<text transform="matrix(37.6209 0 0 37.6209 -6681.8442 -14994.0146)" class="st3 st27">e</text>
	<text transform="matrix(37.6209 0 0 37.6209 -6635.498 -14994.0146)" class="st3 st27">t</text>
	<text transform="matrix(37.6209 0 0 37.6209 -6589.1519 -14994.0146)" class="st3 st27">a</text>
	<text transform="matrix(37.6209 0 0 37.6209 -6532.7388 -14994.0146)" class="st39 st3 st27">&gt;</text>
</g>
<g transform="matrix(0.0265807,0,0,0.0265807,298.851,1168.21)">
	<text transform="matrix(37.6209 0 0 37.6209 -6393.0449 -16169.29)" class="st40 st3 st27">&lt;</text>
	<text transform="matrix(37.6209 0 0 37.6209 -6310.4189 -16169.29)" class="st3 st27">m</text>
	<text transform="matrix(37.6209 0 0 37.6209 -6243.9395 -16169.29)" class="st3 st27">e</text>
	<text transform="matrix(37.6209 0 0 37.6209 -6197.5933 -16169.29)" class="st3 st27">t</text>
	<text transform="matrix(37.6209 0 0 37.6209 -6151.2466 -16169.29)" class="st3 st27">a</text>
	<text transform="matrix(37.6209 0 0 37.6209 -6094.8335 -16169.29)" class="st41 st3 st27">s</text>
	<text transform="matrix(37.6209 0 0 37.6209 -6038.4023 -16169.29)" class="st41 st3 st27">t</text>
	<text transform="matrix(37.6209 0 0 37.6209 -5992.0742 -16169.29)" class="st41 st3 st27">a</text>
	<text transform="matrix(37.6209 0 0 37.6209 -5935.6431 -16169.29)" class="st41 st3 st27">t</text>
	<text transform="matrix(37.6209 0 0 37.6209 -5889.2969 -16169.29)" class="st41 st3 st27">i</text>
	<text transform="matrix(37.6209 0 0 37.6209 -5863.1016 -16169.29)" class="st41 st3 st27">o</text>
	<text transform="matrix(37.6209 0 0 37.6209 -5806.689 -16169.29)" class="st41 st3 st27">n</text>
	<text transform="matrix(37.6209 0 0 37.6209 -5740.1909 -16169.29)" class="st3 st27">.</text>
	<text transform="matrix(37.6209 0 0 37.6209 -5713.9961 -16169.29)" class="st3 st27">f</text>
	<text transform="matrix(37.6209 0 0 37.6209 -5667.6494 -16169.29)" class="st3 st27">i</text>
	<text transform="matrix(37.6209 0 0 37.6209 -5605.1929 -16169.29)" class="st42 st3 st27">&gt;</text>
</g>
<g transform="matrix(0.0265807,0,0,0.0265807,296.601,1208.23)">
	<text transform="matrix(37.6209 0 0 37.6209 -6344.6597 -17029.7754)" class="st3 st27">&lt;</text>
	<text transform="matrix(37.6209 0 0 37.6209 -6262.0518 -17029.7754)" class="st3 st27">m</text>
	<text transform="matrix(37.6209 0 0 37.6209 -6195.5542 -17029.7754)" class="st3 st27">e</text>
	<text transform="matrix(37.6209 0 0 37.6209 -6149.2075 -17029.7754)" class="st3 st27">t</text>
	<text transform="matrix(37.6209 0 0 37.6209 -6102.8613 -17029.7754)" class="st3 st27">a</text>
	<text transform="matrix(37.6209 0 0 37.6209 -6046.4482 -17029.7754)" class="st41 st3 st27">s</text>
	<text transform="matrix(37.6209 0 0 37.6209 -5990.0352 -17029.7754)" class="st41 st3 st27">t</text>
	<text transform="matrix(37.6209 0 0 37.6209 -5943.689 -17029.7754)" class="st41 st3 st27">a</text>
	<text transform="matrix(37.6209 0 0 37.6209 -5887.2578 -17029.7754)" class="st41 st3 st27">t</text>
	<text transform="matrix(37.6209 0 0 37.6209 -5840.9297 -17029.7754)" class="st41 st3 st27">i</text>
	<text transform="matrix(37.6209 0 0 37.6209 -5814.7349 -17029.7754)" class="st41 st3 st27">o</text>
	<text transform="matrix(37.6209 0 0 37.6209 -5758.3032 -17029.7754)" class="st41 st3 st27">n</text>
	<text transform="matrix(37.6209 0 0 37.6209 -5691.8237 -17029.7754)" class="st3 st27">.</text>
	<text transform="matrix(37.6209 0 0 37.6209 -5665.6289 -17029.7754)" class="st3 st27">f</text>
	<text transform="matrix(37.6209 0 0 37.6209 -5619.2827 -17029.7754)" class="st3 st27">i</text>
	<text transform="matrix(37.6209 0 0 37.6209 -5556.8076 -17029.7754)" class="st3 st27">&gt;</text>
</g>
<g>
	<text transform="matrix(1 0 0 1 170.958 756.9717)" class="st3 st27">m</text>
	<text transform="matrix(1 0 0 1 172.5107 756.9717)" class="st3 st27">e</text>
	<text transform="matrix(1 0 0 1 173.5283 756.9717)" class="st3 st27">t</text>
	<text transform="matrix(1 0 0 1 174.5459 756.9717)" class="st3 st27">a</text>
	<text transform="matrix(1 0 0 1 171.0957 757.7637)" class="st3 st43">station</text>
	<text transform="matrix(1 0 0 1 174.5908 758.6084)" class="st3 st43">.FI</text>
	<g transform="matrix(6.12323e-17,1,-1,6.12323e-17,1620.02,806.612)">
		<text transform="matrix(1 0 0 1 -48.5202 1447.9824)" class="st44 st3 st45">&lt;</text>
	</g>
	<g transform="matrix(6.12323e-17,1,-1,6.12323e-17,1617.65,808.022)">
		<text transform="matrix(1 0 0 1 -50.1362 1446.423)" class="st46 st3 st45">&gt;</text>
	</g>
</g>
<g>
	<text transform="matrix(1 0 0 1 170.958 761.7578)" class="st3 st27">m</text>
	<text transform="matrix(1 0 0 1 172.5107 761.7578)" class="st3 st27">e</text>
	<text transform="matrix(1 0 0 1 173.5283 761.7578)" class="st3 st27">t</text>
	<text transform="matrix(1 0 0 1 174.5459 761.7578)" class="st3 st27">a</text>
	<text transform="matrix(1 0 0 1 171.0957 762.5459)" class="st3 st43">station</text>
	<text transform="matrix(1 0 0 1 174.5908 763.3945)" class="st3 st43">.FI</text>
	<g transform="matrix(6.12323e-17,1,-1,6.12323e-17,1631.18,817.777)">
		<text transform="matrix(1 0 0 1 -54.901 1459.1473)" class="st47 st3 st45">&lt;</text>
	</g>
	<g transform="matrix(6.12323e-17,1,-1,6.12323e-17,1628.81,819.187)">
		<text transform="matrix(1 0 0 1 -56.5171 1457.5869)" class="st48 st3 st45">&gt;</text>
	</g>
</g>
<g transform="matrix(0.0180103,0,0,0.0180103,336.147,1113.88)">
	<text transform="matrix(55.5247 0 0 55.5247 -10634.583 -22162.1191)" class="st39 st3 st49">&lt;</text>
	<text transform="matrix(55.5247 0 0 55.5247 -10592.1807 -22162.1191)" class="st3 st49">s</text>
	<text transform="matrix(55.5247 0 0 55.5247 -10540.5322 -22162.1191)" class="st3 st49">t</text>
	<text transform="matrix(55.5247 0 0 55.5247 -10498.1299 -22162.1191)" class="st3 st49">a</text>
	<text transform="matrix(55.5247 0 0 55.5247 -10446.5088 -22162.1191)" class="st3 st49">t</text>
	<text transform="matrix(55.5247 0 0 55.5247 -10404.1064 -22162.1191)" class="st3 st49">i</text>
	<text transform="matrix(55.5247 0 0 55.5247 -10380.1396 -22162.1191)" class="st3 st49">o</text>
	<text transform="matrix(55.5247 0 0 55.5247 -10328.4922 -22162.1191)" class="st3 st49">n</text>
	<text transform="matrix(55.5247 0 0 55.5247 -10267.6533 -22162.1191)" class="st39 st3 st49">&gt;</text>
</g>
<g transform="matrix(0.0144944,0,0,0.0144944,352.898,1113.9)">
	<text transform="matrix(68.9941 0 0 68.9941 -13882.7695 -27550.2344)" class="st39 st3 st50">&lt;</text>
	<text transform="matrix(68.9941 0 0 68.9941 -13849.8223 -27550.2344)" class="st3 st50">f</text>
	<text transform="matrix(68.9941 0 0 68.9941 -13816.875 -27550.2344)" class="st3 st50">i</text>
	<text transform="matrix(68.9941 0 0 68.9941 -13798.2783 -27550.2344)" class="st39 st3 st50">&gt;</text>
</g>
<g>
	<g transform="matrix(0.00754586,0,0,0.00754586,301.127,1119.64)">
		<text transform="matrix(1 0 0 1 129.272 716.7256)" class="st38 st51">STATION</text>
		<text transform="matrix(1 0 0 1 130.2417 716.7256)" class="st18 st51">.</text>
		<text transform="matrix(1 0 0 1 130.3804 716.7256)" class="st1 st51">ﬁ</text>
	</g>
	<text transform="matrix(7.546000e-03 0 0 7.546000e-03 302.1023 1125.0468)" class="st1 st52">me</text>
	<text transform="matrix(7.546000e-03 0 0 7.546000e-03 302.1079 1125.0468)" class="st1 st52">t</text>
	<text transform="matrix(7.546000e-03 0 0 7.546000e-03 302.1098 1125.0468)" class="st1 st52">a</text>
	<text transform="matrix(7.546000e-03 0 0 7.546000e-03 302.1007 1125.0464)" class="st1 st53">&lt;</text>
	<g transform="matrix(-1,-1.22465e-16,1.22465e-16,-1,611.837,2242.12)">
		<text transform="matrix(7.546000e-03 0 0 7.546000e-03 309.7232 1117.0731)" class="st1 st53">&lt;</text>
	</g>
</g>
<circle class="st54" cx="302.2" cy="1125.1" r="61.3"/>
<rect x="291.4" y="1114.2" class="st25" width="21.7" height="21.8"/>
<rect x="-846.8" y="-271.6" class="st55" width="2297.8" height="2794.3"/>
<g>
	<text transform="matrix(7.546000e-03 0 0 7.546000e-03 302.1291 1125.5083)" class="st56 st3 st27">m</text>
	<text transform="matrix(7.546000e-03 0 0 7.546000e-03 302.1408 1125.5083)" class="st56 st3 st27">e</text>
	<text transform="matrix(7.546000e-03 0 0 7.546000e-03 302.1485 1125.5083)" class="st56 st3 st27">t</text>
	<text transform="matrix(7.546000e-03 0 0 7.546000e-03 302.1562 1125.5083)" class="st56 st3 st27">a</text>
	<text transform="matrix(7.546000e-03 0 0 7.546000e-03 302.1302 1125.515)" class="st56 st3 st43">station</text>
	<text transform="matrix(7.546000e-03 0 0 7.546000e-03 302.1565 1125.5215)" class="st56 st3 st43">.FI</text>
	<g transform="matrix(-6.12323e-17,1,1,6.12323e-17,-952.626,952.626)">
		<text transform="matrix(7.546000e-03 0 0 7.546000e-03 172.8906 1254.7678)" class="st56 st3 st57">&lt;</text>
	</g>
	<g transform="matrix(-6.12323e-17,1,1,6.12323e-17,-953.691,953.691)">
		<text transform="matrix(7.546000e-03 0 0 7.546000e-03 171.8244 1255.8282)" class="st56 st3 st57">&gt;</text>
	</g>
</g>
<g>
	<text transform="matrix(7.546000e-03 0 0 7.546000e-03 302.1974 1125.5083)" class="st3 st27">m</text>
	<text transform="matrix(7.546000e-03 0 0 7.546000e-03 302.2091 1125.5083)" class="st3 st27">e</text>
	<text transform="matrix(7.546000e-03 0 0 7.546000e-03 302.2168 1125.5083)" class="st3 st27">t</text>
	<text transform="matrix(7.546000e-03 0 0 7.546000e-03 302.2245 1125.5083)" class="st3 st27">a</text>
	<text transform="matrix(7.546000e-03 0 0 7.546000e-03 302.1985 1125.515)" class="st3 st43">station</text>
	<text transform="matrix(7.546000e-03 0 0 7.546000e-03 302.2248 1125.5215)" class="st3 st43">.FI</text>
	<g transform="matrix(-6.12323e-17,1,1,6.12323e-17,-931.504,931.504)">
		<text transform="matrix(7.546000e-03 0 0 7.546000e-03 194.0126 1233.7142)" class="st3 st57">&lt;</text>
	</g>
	<g transform="matrix(-6.12323e-17,1,1,6.12323e-17,-932.569,932.569)">
		<text transform="matrix(7.546000e-03 0 0 7.546000e-03 192.9464 1234.7745)" class="st3 st57">&gt;</text>
	</g>
</g>
<g>
	<text transform="matrix(7.546000e-03 0 0 7.546000e-03 302.3239 1125.5083)" class="st3 st27">m</text>
	<text transform="matrix(7.546000e-03 0 0 7.546000e-03 302.3356 1125.5083)" class="st3 st27">e</text>
	<text transform="matrix(7.546000e-03 0 0 7.546000e-03 302.3433 1125.5083)" class="st3 st27">t</text>
	<text transform="matrix(7.546000e-03 0 0 7.546000e-03 302.351 1125.5083)" class="st3 st27">a</text>
	<text transform="matrix(7.546000e-03 0 0 7.546000e-03 302.325 1125.515)" class="st3 st43">station</text>
	<text transform="matrix(7.546000e-03 0 0 7.546000e-03 302.3543 1125.5215)" class="st3 st43">FI</text>
	<rect x="293.8" y="1116.9" class="st25" width="17.1" height="17.1"/>
	<rect x="293.8" y="1116.9" class="st25" width="17.1" height="17.1"/>
	<g>
		<text transform="matrix(7.546000e-03 0 0 7.546000e-03 302.338 1125.5215)" class="st58 st3 st59">100101000100</text>
		<text transform="matrix(7.546000e-03 0 0 7.546000e-03 302.338 1125.5197)" class="st58 st3 st59">101010001000</text>
		<text transform="matrix(7.546000e-03 0 0 7.546000e-03 302.338 1125.5177)" class="st58 st3 st59">100100100010</text>
	</g>
	<g transform="matrix(-6.12323e-17,1,1,6.12323e-17,-892.378,892.378)">
		<text transform="matrix(7.546000e-03 0 0 7.546000e-03 233.1386 1194.7147)" class="st58 st3 st57">&lt;</text>
	</g>
	<g transform="matrix(-6.12323e-17,1,1,6.12323e-17,-893.443,893.443)">
		<text transform="matrix(7.546000e-03 0 0 7.546000e-03 232.0724 1195.775)" class="st58 st3 st57">&gt;</text>
	</g>
</g>
<g>
	<text transform="matrix(7.546000e-03 0 0 7.546000e-03 302.3239 1125.5764)" class="st3 st27">m</text>
	<text transform="matrix(7.546000e-03 0 0 7.546000e-03 302.3356 1125.5764)" class="st3 st27">e</text>
	<text transform="matrix(7.546000e-03 0 0 7.546000e-03 302.3433 1125.5764)" class="st3 st27">t</text>
	<text transform="matrix(7.546000e-03 0 0 7.546000e-03 302.351 1125.5764)" class="st3 st27">a</text>
	<text transform="matrix(7.546000e-03 0 0 7.546000e-03 302.325 1125.5833)" class="st3 st43">station</text>
	<text transform="matrix(7.546000e-03 0 0 7.546000e-03 302.3543 1125.5897)" class="st3 st43">FI</text>
	<rect x="293.8" y="1117" class="st25" width="17.1" height="17.1"/>
	<rect x="293.8" y="1117" class="st25" width="17.1" height="17.1"/>
	<g>
		<text transform="matrix(7.546000e-03 0 0 7.546000e-03 302.338 1125.5897)" class="st58 st3 st59">100101000100</text>
		<text transform="matrix(7.546000e-03 0 0 7.546000e-03 302.338 1125.5878)" class="st58 st3 st59">101010001000</text>
		<text transform="matrix(7.546000e-03 0 0 7.546000e-03 302.338 1125.5859)" class="st58 st3 st59">100100100010</text>
	</g>
	<g transform="matrix(-6.12323e-17,1,1,6.12323e-17,-913.472,913.472)">
		<text transform="matrix(7.546000e-03 0 0 7.546000e-03 212.1128 1215.8087)" class="st58 st3 st57">&lt;</text>
	</g>
	<g transform="matrix(-6.12323e-17,1,1,6.12323e-17,-914.537,914.537)">
		<text transform="matrix(7.546000e-03 0 0 7.546000e-03 211.0466 1216.869)" class="st58 st3 st57">&gt;</text>
	</g>
</g>
<text transform="matrix(7.546000e-03 0 0 7.546000e-03 302.4355 1125.5083)" class="st3 st27">m</text>
<text transform="matrix(7.546000e-03 0 0 7.546000e-03 302.4473 1125.5083)" class="st3 st27">e</text>
<text transform="matrix(7.546000e-03 0 0 7.546000e-03 302.455 1125.5083)" class="st3 st27">t</text>
<text transform="matrix(7.546000e-03 0 0 7.546000e-03 302.4626 1125.5083)" class="st3 st27">a</text>
<g>
	<text transform="matrix(7.546000e-03 0 0 7.546000e-03 302.7661 1125.366)" class="st3 st27">m</text>
	<text transform="matrix(7.546000e-03 0 0 7.546000e-03 302.7778 1125.366)" class="st3 st27">e</text>
	<text transform="matrix(7.546000e-03 0 0 7.546000e-03 302.7855 1125.366)" class="st3 st27">t</text>
	<text transform="matrix(7.546000e-03 0 0 7.546000e-03 302.7931 1125.366)" class="st3 st27">a</text>
	<text transform="matrix(7.546000e-03 0 0 7.546000e-03 302.7671 1125.3727)" class="st3 st43">station</text>
	<text transform="matrix(7.546000e-03 0 0 7.546000e-03 302.7964 1125.3792)" class="st3 st43">FI</text>
	<rect x="294.2" y="1116.8" class="st25" width="17.1" height="17.1"/>
	<g>
		<text transform="matrix(7.546000e-03 0 0 7.546000e-03 302.7801 1125.3792)" class="st58 st3 st59">100101000100</text>
		<text transform="matrix(7.546000e-03 0 0 7.546000e-03 302.7801 1125.3773)" class="st58 st3 st59">101010001000</text>
		<text transform="matrix(7.546000e-03 0 0 7.546000e-03 302.7801 1125.3755)" class="st58 st3 st59">100100100010</text>
	</g>
	<g transform="matrix(6.12323e-17,1,-1,6.12323e-17,1730.05,706.338)">
		<text transform="matrix(7.546000e-03 0 0 7.546000e-03 419.0363 1427.282)" class="st58 st3 st57">&lt;</text>
	</g>
	<g transform="matrix(6.12323e-17,1,-1,6.12323e-17,1731.11,704.508)">
		<text transform="matrix(7.546000e-03 0 0 7.546000e-03 420.8651 1428.3373)" class="st58 st3 st57">&gt;</text>
	</g>
</g>
<g transform="matrix(0.0312668,0,0,0.0312668,522.921,1177.96)">
	<text transform="matrix(0.2413 0 0 0.2413 -7039.2285 -1685.9536)" class="st60 st61">M</text>
	<text transform="matrix(0.2413 0 0 0.2413 -7038.897 -1685.9536)" class="st60 st61">E</text>
	<text transform="matrix(0.2413 0 0 0.2413 -7038.688 -1685.9536)" class="st60 st61">T</text>
	<text transform="matrix(0.2413 0 0 0.2413 -7038.4849 -1685.9536)" class="st60 st61">A</text>
</g>
<g transform="matrix(0.0312668,0,0,0.0312668,548.203,1177.96)">
	<text transform="matrix(0.2413 0 0 0.2413 -7845.1978 -1685.9536)" class="st60 st61">M</text>
	<text transform="matrix(0.2413 0 0 0.2413 -7844.8657 -1685.9536)" class="st60 st61">E</text>
	<text transform="matrix(0.2413 0 0 0.2413 -7844.6572 -1685.9536)" class="st60 st61">T</text>
	<text transform="matrix(0.2413 0 0 0.2413 -7844.4541 -1685.9536)" class="st60 st61">A</text>
</g>
<g transform="matrix(0.0297669,0,0,0.0297669,569.138,1178.12)">
	<text transform="matrix(0.2535 0 0 0.2535 -8941.5615 -1776.2876)" class="st60 st62">M</text>
	<text transform="matrix(0.2535 0 0 0.2535 -8941.2305 -1776.2876)" class="st60 st62">E</text>
	<text transform="matrix(0.2535 0 0 0.2535 -8941.0215 -1776.2876)" class="st60 st62">T</text>
	<text transform="matrix(0.2535 0 0 0.2535 -8940.8184 -1776.2876)" class="st60 st62">A</text>
</g>
<g transform="matrix(0.0297669,0,0,0.0297669,569.138,1158.89)">
	<text transform="matrix(0.2535 0 0 0.2535 -8941.5615 -1132.3599)" class="st60 st62">M</text>
	<text transform="matrix(0.2535 0 0 0.2535 -8941.2305 -1132.3599)" class="st60 st62">E</text>
	<text transform="matrix(0.2535 0 0 0.2535 -8941.0215 -1132.3599)" class="st60 st62">T</text>
	<text transform="matrix(0.2535 0 0 0.2535 -8940.8184 -1132.3599)" class="st60 st62">A</text>
</g>
<text transform="matrix(7.546000e-03 0 0 7.546000e-03 302.9252 1125.0503)" class="st60 st63">STATION  fi</text>
<text transform="matrix(7.546000e-03 0 0 7.546000e-03 302.99 1125.1125)" class="st60 st63">STATION  fi</text>
<text transform="matrix(7.546000e-03 0 0 7.546000e-03 302.8344 1125.1125)" class="st60 st63">STATION  fi</text>
<g>
	<text transform="matrix(7.546000e-03 0 0 7.546000e-03 303.046 1125.2146)" class="st60 st63">STATION  fi</text>
	<g>
		<g transform="matrix(-6.12323e-17,-1,-1,6.12323e-17,1774.02,1774.02)">
			<text transform="matrix(7.546000e-03 0 0 7.546000e-03 648.8071 1470.9537)" class="st64 st65">&gt;</text>
		</g>
		<g transform="matrix(1.83697e-16,-1,-1,-1.83697e-16,1774.32,1774.32)">
			<text transform="matrix(7.546000e-03 0 0 7.546000e-03 649.1061 1471.2537)" class="st64 st65">&lt;</text>
		</g>
		<circle class="st66" cx="303.1" cy="1125.2" r="4.3"/>
	</g>
	<g transform="matrix(0.0297669,0,0,0.0297669,591.256,1166.89)">
		<text transform="matrix(0.2535 0 0 0.2535 -9682.1963 -1400.2449)" class="st60 st62">M</text>
		<text transform="matrix(0.2535 0 0 0.2535 -9681.8652 -1400.2449)" class="st60 st62">E</text>
		<text transform="matrix(0.2535 0 0 0.2535 -9681.6562 -1400.2449)" class="st60 st62">T</text>
		<text transform="matrix(0.2535 0 0 0.2535 -9681.4531 -1400.2449)" class="st60 st62">A</text>
	</g>
</g>
<g>
	<g transform="matrix(-6.12323e-17,-1,-1,6.12323e-17,1685.84,1685.84)">
		<text transform="matrix(7.546000e-03 0 0 7.546000e-03 560.7913 1382.8945)" class="st64 st65">&gt;</text>
	</g>
	<g transform="matrix(1.83697e-16,-1,-1,-1.83697e-16,1686.14,1686.14)">
		<text transform="matrix(7.546000e-03 0 0 7.546000e-03 561.0904 1383.1946)" class="st64 st65">&lt;</text>
	</g>
	<g transform="matrix(1.71614e-16,-1,-1,-2.39204e-16,1686.14,1686.14)">
		<text transform="matrix(7.546000e-03 0 0 7.546000e-03 561.0914 1383.1936)" class="st67 st64 st65">.</text>
	</g>
</g>
<g>
	<g transform="matrix(-6.12323e-17,-1,-1,6.12323e-17,1725.14,1725.14)">
		<text transform="matrix(7.546000e-03 0 0 7.546000e-03 600.0291 1422.1298)" class="st64 st65">&gt;</text>
	</g>
	<g transform="matrix(1.83697e-16,-1,-1,-1.83697e-16,1725.44,1725.44)">
		<text transform="matrix(7.546000e-03 0 0 7.546000e-03 600.328 1422.4297)" class="st64 st65">&lt;</text>
	</g>
</g>
<g transform="matrix(-6.12323e-17,-1,-1,6.12323e-17,1677.08,1677.08)">
	<text transform="matrix(7.546000e-03 0 0 7.546000e-03 551.9678 1374.2257)" class="st68 st64 st69">&gt;</text>
</g>
<g transform="matrix(1.83697e-16,-1,-1,-1.83697e-16,1677.07,1677.07)">
	<text transform="matrix(7.546000e-03 0 0 7.546000e-03 551.9591 1374.2144)" class="st68 st64 st69">&lt;</text>
</g>
<g transform="matrix(0.0297669,0,0,0.0297669,553.887,1116.08)">
	<text transform="matrix(0.2535 0 0 0.2535 -8430.873 301.162)" class="st60 st62">M</text>
	<text transform="matrix(0.2535 0 0 0.2535 -8430.542 301.162)" class="st60 st62">E</text>
	<text transform="matrix(0.2535 0 0 0.2535 -8430.333 301.162)" class="st60 st62">T</text>
	<text transform="matrix(0.2535 0 0 0.2535 -8430.1299 301.162)" class="st60 st62">A</text>
</g>
<g transform="matrix(0.0297669,0,0,0.0297669,573.916,1135.35)">
	<text transform="matrix(0.2535 0 0 0.2535 -9101.5566 -344.1067)" class="st60 st62">M</text>
	<text transform="matrix(0.2535 0 0 0.2535 -9101.2256 -344.1067)" class="st60 st62">E</text>
	<text transform="matrix(0.2535 0 0 0.2535 -9101.0166 -344.1067)" class="st60 st62">T</text>
	<text transform="matrix(0.2535 0 0 0.2535 -9100.8135 -344.1067)" class="st60 st62">A</text>
</g>
<g transform="matrix(0.0297669,0,0,0.0297669,525.815,1135.35)">
	<text transform="matrix(0.2535 0 0 0.2535 -7490.8643 -344.1067)" class="st60 st62">M</text>
	<text transform="matrix(0.2535 0 0 0.2535 -7490.5322 -344.1067)" class="st60 st62">E</text>
	<text transform="matrix(0.2535 0 0 0.2535 -7490.3232 -344.1067)" class="st60 st62">T</text>
	<text transform="matrix(0.2535 0 0 0.2535 -7490.1206 -344.1067)" class="st60 st62">A</text>
</g>
<g transform="matrix(0.0297669,0,0,0.0297669,585.521,1178.12)">
	<text transform="matrix(0.2535 0 0 0.2535 -9490.1572 -1776.2876)" class="st60 st62">M</text>
	<text transform="matrix(0.2535 0 0 0.2535 -9489.8252 -1776.2876)" class="st60 st62">E</text>
	<text transform="matrix(0.2535 0 0 0.2535 -9489.6162 -1776.2876)" class="st60 st62">T</text>
	<text transform="matrix(0.2535 0 0 0.2535 -9489.4131 -1776.2876)" class="st60 st62">A</text>
</g>
<text transform="matrix(7.546000e-03 0 0 7.546000e-03 302.8281 1125.2502)" class="st60 st70">STATION fi</text>
<text transform="matrix(7.546000e-03 0 0 7.546000e-03 302.9072 1125.2501)" class="st60 st63">STATION  fi</text>
<text transform="matrix(7.546000e-03 0 0 7.546000e-03 302.9745 1125.2501)" class="st60 st63">STATION  fi</text>
<text transform="matrix(7.546000e-03 0 0 7.546000e-03 302.9745 1125.1887)" class="st60 st63">STATION  fi</text>
<text transform="matrix(7.546000e-03 0 0 7.546000e-03 303.0275 1125.2501)" class="st60 st63">STATION  fi</text>
<text transform="matrix(7.546000e-03 0 0 7.546000e-03 302.8468 1125.2489)" class="st60 st71">.</text>
<text transform="matrix(7.546000e-03 0 0 7.546000e-03 302.7882 1125.2699)" class="st60 st43">fi</text>
<rect x="294.2" y="1116.7" class="st25" width="17.1" height="17.1"/>
<g>
	<text transform="matrix(7.546000e-03 0 0 7.546000e-03 302.7801 1125.2764)" class="st58 st3 st59">100101000100</text>
	<text transform="matrix(7.546000e-03 0 0 7.546000e-03 302.7801 1125.2745)" class="st58 st3 st59">101010001000</text>
	<text transform="matrix(7.546000e-03 0 0 7.546000e-03 302.7801 1125.2727)" class="st58 st3 st59">100100100010</text>
</g>
<g transform="matrix(6.12323e-17,1,-1,6.12323e-17,1698.25,674.539)">
	<text transform="matrix(7.546000e-03 0 0 7.546000e-03 450.7325 1395.4819)" class="st58 st60 st57">&lt;</text>
</g>
<g transform="matrix(6.12323e-17,1,-1,6.12323e-17,1699.31,672.709)">
	<text transform="matrix(7.546000e-03 0 0 7.546000e-03 452.5612 1396.5374)" class="st58 st60 st57">&gt;</text>
</g>
<text transform="matrix(7.546000e-03 0 0 7.546000e-03 302.8867 1125.3619)" class="st64 st27">mETA</text>
<text transform="matrix(7.546000e-03 0 0 7.546000e-03 302.8856 1125.369)" class="st64 st72">STATION</text>
<text transform="matrix(7.546000e-03 0 0 7.546000e-03 302.9212 1125.369)" class="st64 st43">fi</text>
<rect x="294.3" y="1116.8" class="st25" width="17.1" height="17.1"/>
<g>
	<text transform="matrix(7.546000e-03 0 0 7.546000e-03 302.8866 1125.3734)" class="st58 st3 st73">100101000100</text>
	<text transform="matrix(7.546000e-03 0 0 7.546000e-03 302.8866 1125.3723)" class="st58 st3 st73">101010001000</text>
	<text transform="matrix(7.546000e-03 0 0 7.546000e-03 302.8866 1125.3711)" class="st58 st3 st73">100100100010</text>
</g>
<text transform="matrix(7.546000e-03 0 0 7.546000e-03 302.8255 1125.2496)" class="st64 st65">&lt;</text>
<g transform="matrix(-6.12323e-17,1,1,6.12323e-17,-624.49,624.49)">
	<text transform="matrix(7.546000e-03 0 0 7.546000e-03 500.7568 927.4205)" class="st64 st65">&lt;</text>
</g>
<g transform="matrix(1.83697e-16,-1,-1,-1.83697e-16,1763.22,1763.22)">
	<text transform="matrix(7.546000e-03 0 0 7.546000e-03 637.9705 1460.2251)" class="st64 st65">&lt;</text>
</g>
<g transform="matrix(1.83697e-16,-1,-1,-1.83697e-16,1744.23,1744.23)">
	<text transform="matrix(7.546000e-03 0 0 7.546000e-03 619.0419 1441.2351)" class="st64 st65">&lt;</text>
</g>
<g transform="matrix(1.83697e-16,-1,-1,-1.83697e-16,1779.45,1779.45)">
	<text transform="matrix(7.546000e-03 0 0 7.546000e-03 654.2005 1476.4027)" class="st64 st65">&lt;</text>
</g>
<text transform="matrix(7.546000e-03 0 0 7.546000e-03 302.8524 1125.2496)" class="st64 st65">&gt;</text>
<g transform="matrix(1.83697e-16,1,1,-1.83697e-16,-625.311,625.311)">
	<text transform="matrix(7.546000e-03 0 0 7.546000e-03 499.9373 928.2404)" class="st64 st65">&gt;</text>
</g>
<g transform="matrix(-6.12323e-17,-1,-1,6.12323e-17,1762.92,1762.92)">
	<text transform="matrix(7.546000e-03 0 0 7.546000e-03 637.6716 1459.9252)" class="st64 st65">&gt;</text>
</g>
<g transform="matrix(-6.12323e-17,-1,-1,6.12323e-17,1743.93,1743.93)">
	<text transform="matrix(7.546000e-03 0 0 7.546000e-03 618.743 1440.9352)" class="st64 st65">&gt;</text>
</g>
<g transform="matrix(-6.12323e-17,-1,-1,6.12323e-17,1779.45,1779.45)">
	<text transform="matrix(7.546000e-03 0 0 7.546000e-03 654.2015 1476.4017)" class="st64 st65">&gt;</text>
</g>
<text transform="matrix(7.546000e-03 0 0 7.546000e-03 302.8905 1125.5135)" class="st26 st3 st74">s</text>
<text transform="matrix(7.546000e-03 0 0 7.546000e-03 302.8964 1125.5135)" class="st26 st3 st74">t</text>
<text transform="matrix(7.546000e-03 0 0 7.546000e-03 302.9014 1125.5135)" class="st26 st3 st74">a</text>
<text transform="matrix(7.546000e-03 0 0 7.546000e-03 302.9073 1125.5135)" class="st26 st3 st74">t</text>
<text transform="matrix(7.546000e-03 0 0 7.546000e-03 302.9124 1125.5135)" class="st26 st3 st74">i</text>
<text transform="matrix(7.546000e-03 0 0 7.546000e-03 302.9157 1125.5135)" class="st26 st3 st74">o</text>
<text transform="matrix(7.546000e-03 0 0 7.546000e-03 302.9216 1125.5135)" class="st26 st3 st74">n</text>
<g transform="matrix(0.00963551,0,0,0.00963551,554.34,1264.91)">
	<text transform="matrix(7.546000e-03 0 0 7.546000e-03 302.9217 1125.5188)" class="st3 st75">F</text>
	<text transform="matrix(7.546000e-03 0 0 7.546000e-03 302.9248 1125.5188)" class="st3 st76">I</text>
</g>
<rect x="557.2" y="1275.7" class="st77" width="0.1" height="0.1"/>
<g>
	<text transform="matrix(7.271326e-05 0 0 7.271326e-05 557.2588 1275.7555)" class="st78 st3 st59">100101001010000</text>
	<text transform="matrix(7.271326e-05 0 0 7.271326e-05 557.2588 1275.7555)" class="st78 st3 st59">101010001000010</text>
	<text transform="matrix(7.271326e-05 0 0 7.271326e-05 557.2588 1275.7555)" class="st78 st3 st59">100100001011000</text>
</g>
<g transform="matrix(-6.12323e-17,1,1,6.12323e-17,-716.965,716.965)">
	<text transform="matrix(7.271326e-05 0 0 7.271326e-05 558.7905 1274.2238)" class="st79 st3 st80">&lt;</text>
</g>
<g transform="matrix(-6.12323e-17,1,1,6.12323e-17,-717.911,717.911)">
	<text transform="matrix(7.271326e-05 0 0 7.271326e-05 557.8445 1275.1698)" class="st81 st3 st80">&gt;</text>
</g>
<rect x="557.2" y="1275.7" class="st24" width="0.2" height="0.1"/>
<g>
	<text transform="matrix(7.271326e-05 0 0 7.271326e-05 557.2574 1275.7557)" class="st3 st27">m</text>
	<text transform="matrix(7.271326e-05 0 0 7.271326e-05 557.2576 1275.7557)" class="st3 st27">e</text>
	<text transform="matrix(7.271326e-05 0 0 7.271326e-05 557.2577 1275.7557)" class="st3 st27">t</text>
	<text transform="matrix(7.271326e-05 0 0 7.271326e-05 557.2578 1275.7557)" class="st3 st27">a</text>
	<text transform="matrix(7.271326e-05 0 0 7.271326e-05 557.2575 1275.7559)" class="st3 st43">station</text>
	<text transform="matrix(7.271326e-05 0 0 7.271326e-05 557.2578 1275.7559)" class="st3 st43">FI</text>
	<rect x="557.2" y="1275.7" class="st25" width="0.1" height="0.1"/>
	<g>
		<text transform="matrix(7.271326e-05 0 0 7.271326e-05 557.2576 1275.7559)" class="st58 st3 st59">100101000100</text>
		<text transform="matrix(7.271326e-05 0 0 7.271326e-05 557.2576 1275.7559)" class="st58 st3 st59">101010001000</text>
		<text transform="matrix(7.271326e-05 0 0 7.271326e-05 557.2576 1275.7559)" class="st58 st3 st59">100100100010</text>
	</g>
	<g transform="matrix(6.12323e-17,1,-1,6.12323e-17,1784.8,761.464)">
		<text transform="matrix(7.271326e-05 0 0 7.271326e-05 514.2919 1227.5426)" class="st58 st3 st57">&lt;</text>
	</g>
	<g transform="matrix(6.12323e-17,1,-1,6.12323e-17,1785.86,759.634)">
		<text transform="matrix(7.271326e-05 0 0 7.271326e-05 516.1219 1228.6024)" class="st82 st3 st57">&gt;</text>
	</g>
</g>
<g>
	<text transform="matrix(7.271326e-05 0 0 7.271326e-05 557.2574 1275.7561)" class="st3 st27">m</text>
	<text transform="matrix(7.271326e-05 0 0 7.271326e-05 557.2576 1275.7561)" class="st3 st27">e</text>
	<text transform="matrix(7.271326e-05 0 0 7.271326e-05 557.2576 1275.7561)" class="st3 st27">t</text>
	<text transform="matrix(7.271326e-05 0 0 7.271326e-05 557.2578 1275.7561)" class="st3 st27">a</text>
	<text transform="matrix(7.271326e-05 0 0 7.271326e-05 557.2575 1275.7562)" class="st3 st43">station</text>
	<text transform="matrix(7.271326e-05 0 0 7.271326e-05 557.2578 1275.7562)" class="st3 st43">FI</text>
	<rect x="557.2" y="1275.7" class="st25" width="0.1" height="0.1"/>
	<g>
		<text transform="matrix(7.271326e-05 0 0 7.271326e-05 557.2576 1275.7562)" class="st58 st3 st59">100101000100</text>
		<text transform="matrix(7.271326e-05 0 0 7.271326e-05 557.2576 1275.7562)" class="st58 st3 st59">101010001000</text>
		<text transform="matrix(7.271326e-05 0 0 7.271326e-05 557.2576 1275.7562)" class="st58 st3 st59">100100100010</text>
	</g>
	<g transform="matrix(6.12323e-17,1,-1,6.12323e-17,1795.57,772.436)">
		<text transform="matrix(7.271326e-05 0 0 7.271326e-05 503.3202 1238.3125)" class="st83 st3 st57">&lt;</text>
	</g>
	<g transform="matrix(6.12323e-17,1,-1,6.12323e-17,1796.64,770.607)">
		<text transform="matrix(7.271326e-05 0 0 7.271326e-05 505.1492 1239.3824)" class="st58 st3 st57">&gt;</text>
	</g>
</g>
<text transform="matrix(7.271326e-05 0 0 7.271326e-05 557.2543 1275.7559)" class="st3 st27">m</text>
<text transform="matrix(7.271326e-05 0 0 7.271326e-05 557.2544 1275.7559)" class="st3 st27">e</text>
<text transform="matrix(7.271326e-05 0 0 7.271326e-05 557.2545 1275.7559)" class="st3 st27">t</text>
<text transform="matrix(7.271326e-05 0 0 7.271326e-05 557.2546 1275.7559)" class="st3 st27">a</text>
<text transform="matrix(7.271326e-05 0 0 7.271326e-05 557.2543 1275.7555)" class="st3 st43">station</text>
<text transform="matrix(7.271326e-05 0 0 7.271326e-05 557.2543 1275.7559)" class="st3 st43">station</text>
<text transform="matrix(7.271326e-05 0 0 7.271326e-05 557.2546 1275.7556)" class="st3 st43">FI</text>
<text transform="matrix(7.271326e-05 0 0 7.271326e-05 557.2543 1275.756)" class="st3 st43">FI</text>
<rect x="557.2" y="1275.7" class="st25" width="0.1" height="0.1"/>
<rect x="557.2" y="1275.7" class="st25" width="0.1" height="0.1"/>
<g>
	<text transform="matrix(7.271326e-05 0 0 7.271326e-05 557.2545 1275.7556)" class="st58 st3 st59">100101000100</text>
	<text transform="matrix(7.271326e-05 0 0 7.271326e-05 557.2545 1275.7555)" class="st58 st3 st59">101010001000</text>
	<text transform="matrix(7.271326e-05 0 0 7.271326e-05 557.2545 1275.7555)" class="st58 st3 st59">100100100010</text>
</g>
<g>
	<text transform="matrix(7.271326e-05 0 0 7.271326e-05 557.2544 1275.756)" class="st58 st3 st59">100101000100</text>
	<text transform="matrix(7.271326e-05 0 0 7.271326e-05 557.2544 1275.756)" class="st58 st3 st59">101010001000</text>
	<text transform="matrix(7.271326e-05 0 0 7.271326e-05 557.2544 1275.7559)" class="st58 st3 st59">100100100010</text>
</g>
<g transform="matrix(6.12323e-17,1,-1,6.12323e-17,1671.85,852.573)">
	<text transform="matrix(7.271326e-05 0 0 7.271326e-05 423.1825 1114.5957)" class="st58 st3 st57">&lt;</text>
</g>
<g transform="matrix(6.12323e-17,1,-1,6.12323e-17,1692.12,857.75)">
	<text transform="matrix(7.271326e-05 0 0 7.271326e-05 418.0059 1134.8655)" class="st58 st3 st57">&lt;</text>
</g>
<g transform="matrix(6.12323e-17,1,-1,6.12323e-17,1672.91,850.743)">
	<text transform="matrix(7.271326e-05 0 0 7.271326e-05 425.0125 1115.6556)" class="st58 st3 st57">&gt;</text>
</g>
<g transform="matrix(6.12323e-17,1,-1,6.12323e-17,1693.18,855.921)">
	<text transform="matrix(7.271326e-05 0 0 7.271326e-05 419.8349 1135.9254)" class="st58 st3 st57">&gt;</text>
</g>
<g transform="matrix(1.71614e-16,-1,-1,-2.39204e-16,1677.43,1677.43)">
	<text transform="matrix(7.271326e-05 0 0 7.271326e-05 401.6784 1120.1718)" class="st67 st64 st65">.</text>
</g>
<rect id="Artboard4" x="539.9" y="1260" class="st0" width="34.8" height="31.5"/>
<text transform="matrix(7.271326e-05 0 0 7.271326e-05 557.2586 1275.7426)" class="st60 st84">STATION  fi</text>
<g>
	<g transform="matrix(-6.12323e-17,-1,-1,6.12323e-17,1467.72,1467.72)">
		<text transform="matrix(7.271326e-05 0 0 7.271326e-05 191.9775 910.4597)" class="st64 st85">&gt;</text>
	</g>
	<g transform="matrix(1.83697e-16,-1,-1,-1.83697e-16,1470.26,1470.26)">
		<text transform="matrix(7.271326e-05 0 0 7.271326e-05 194.5175 912.9998)" class="st64 st85">&lt;</text>
	</g>
	<g transform="matrix(1.71614e-16,-1,-1,-2.39204e-16,1470.26,1470.26)">
		<text transform="matrix(7.271326e-05 0 0 7.271326e-05 194.5175 912.9996)" class="st67 st64 st85">.</text>
	</g>
</g>
<g transform="matrix(0.253167,0,0,0.253167,523.895,808.746)">
	<text transform="matrix(2.872146e-04 0 0 2.872146e-04 131.7849 1844.6171)" class="st60 st86">M</text>
	<text transform="matrix(2.872146e-04 0 0 2.872146e-04 131.7881 1844.6171)" class="st60 st86">E</text>
	<text transform="matrix(2.872146e-04 0 0 2.872146e-04 131.7901 1844.6171)" class="st60 st86">T</text>
	<text transform="matrix(2.872146e-04 0 0 2.872146e-04 131.7921 1844.6171)" class="st60 st86">A</text>
</g>
<rect id="Artboard41" x="181.9" y="1020" serif:id="Artboard4" class="st87" width="750.8" height="511.5">
</rect>
<g>
	<g transform="matrix(0.164101,0,0,0.164101,866.506,107.894)">
		<text transform="matrix(4.431006e-04 0 0 4.431006e-04 -1884.4304 7116.5073)" class="st88 st60 st89">META</text>
		<text transform="matrix(4.431006e-04 0 0 4.431006e-04 -1884.4208 7116.5073)" class="st90 st60 st89">statIOn</text>
		<text transform="matrix(4.431006e-04 0 0 4.431006e-04 -1884.4064 7116.5073)" class="st91 st60 st89">fi</text>
	</g>
	<g>
		<g transform="matrix(-6.12323e-17,-1,-1,6.12323e-17,1146.54,1146.54)">
			<text transform="matrix(7.271326e-05 0 0 7.271326e-05 -129.18 589.2673)" class="st90 st64 st92">&gt;</text>
		</g>
		<g transform="matrix(1.83697e-16,-1,-1,-1.83697e-16,1148.95,1148.95)">
			<text transform="matrix(7.271326e-05 0 0 7.271326e-05 -126.7701 591.6772)" class="st90 st64 st92">&lt;</text>
		</g>
		<g transform="matrix(1.71614e-16,-1,-1,-2.39204e-16,1148.95,1148.95)">
			<text transform="matrix(7.271326e-05 0 0 7.271326e-05 -126.7701 591.6771)" class="st67 st64 st92">.</text>
		</g>
	</g>
</g>
<rect id="Artboard42" x="182" y="1020" serif:id="Artboard4" class="st93" width="750.8" height="511.5">
</rect>
<g>
	<defs>
		<rect id="SVGID_1_" x="182" y="1020" width="750.8" height="511.5"/>
	</defs>
	<clipPath id="SVGID_2_">
		<use xlink:href="#SVGID_1_"  style="overflow:visible;"/>
	</clipPath>
	<g class="st94">
		<rect x="473.3" y="1020" class="st87" width="168" height="511.5"/>
		<g>
			<g transform="matrix(0.164101,0,0,0.164101,2765.74,40.9371)">
				<text transform="matrix(4.431006e-04 0 0 4.431006e-04 -13457.6377 7524.5171)" class="st88 st60 st89">META</text>
				<text transform="matrix(4.431006e-04 0 0 4.431006e-04 -13457.6279 7524.5171)" class="st90 st60 st89">statIOn</text>
				<text transform="matrix(4.431006e-04 0 0 4.431006e-04 -13457.6133 7524.5171)" class="st91 st60 st89">fi</text>
			</g>
			<g>
				<g transform="matrix(-6.12323e-17,-1,-1,6.12323e-17,2978.81,2978.81)">
					<text transform="matrix(7.271326e-05 0 0 7.271326e-05 1703.0922 2421.478)" class="st90 st64 st92">&gt;</text>
				</g>
				<g transform="matrix(1.83697e-16,-1,-1,-1.83697e-16,2981.23,2981.23)">
					<text transform="matrix(7.271326e-05 0 0 7.271326e-05 1705.512 2423.8979)" class="st90 st64 st92">&lt;</text>
				</g>
				<g transform="matrix(1.71614e-16,-1,-1,-2.39204e-16,2981.23,2981.23)">
					<text transform="matrix(7.271326e-05 0 0 7.271326e-05 1705.5121 2423.8979)" class="st67 st64 st92">.</text>
				</g>
			</g>
		</g>
	</g>
</g>
<rect x="553.7" y="1273.3" class="st95" width="7.3" height="4.8"/>
<rect x="553.7" y="1273.3" class="st96" width="7.3" height="4.8"/>
<rect x="553.7" y="1273.3" class="st96" width="7.3" height="4.8"/>
<rect x="553.7" y="1273.3" class="st97" width="7.3" height="4.8"/>
<rect x="553.7" y="1273.3" class="st98" width="7.3" height="4.8"/>
<rect x="553.7" y="1273.3" class="st87" width="7.3" height="4.8"/>
</svg>
